#!OML:ASF H:\Dans Jumps\Project 1\Capture day 1\Session 1\subject.ASF
:FULLY-SPECIFIED
:DEGREES
327
root 0.728779 17.6003 9.74259 16.0017 0.548932 -3.53013
lowerback 12.3854 0.593769 -1.40934
upperback 7.24636 0.650757 1.7742
thorax 0.609327 0.24518 2.5622
lowerneck -12.5838 0.418974 1.20759
upperneck 14.6123 0.462067 -0.77954
head 6.52394 0.2235 -0.405209
rclavicle 4.82053e-015 -4.57205e-015
rhumerus -25.6861 -11.1939 -82.806
rradius 34.9978
rwrist 24.9016
rhand -26.0574 -27.7636
rfingers 7.12502
rthumb 0.49029 -57.7427
lclavicle 4.82053e-015 -4.57205e-015
lhumerus -28.4223 -2.03418 83.6033
lradius 22.1383
lwrist 23.6534
lhand -24.2947 -8.90214
lfingers 7.12502
lthumb 2.19274 21.0663
rfemur -34.1055 -0.304201 21.4745
rtibia 31.4416
rfoot -9.50926 -0.902068
rtoes 8.7314
lfemur -33.1444 7.42816 -19.0728
ltibia 31.5242
lfoot -9.36759 3.4296
ltoes -5.92395
328
root 0.737156 17.5971 9.78943 16.1388 0.604214 -3.52994
lowerback 12.3641 0.592515 -1.36373
upperback 7.25648 0.654041 1.79071
thorax 0.631376 0.247575 2.55344
lowerneck -12.6521 0.408814 1.20767
upperneck 14.4043 0.455773 -0.833967
head 6.46924 0.215626 -0.422945
rclavicle -6.5102e-015 -9.54166e-015
rhumerus -26.1759 -12.2324 -82.1178
rradius 33.3255
rwrist 25.9244
rhand -25.8053 -27.6691
rfingers 7.12502
rthumb 0.73384 -57.6476
lclavicle -6.5102e-015 -9.54166e-015
lhumerus -29.1452 -1.67687 83.7957
lradius 21.7309
lwrist 23.2183
lhand -24.185 -8.77102
lfingers 7.12502
lthumb 2.2987 21.1963
rfemur -33.9837 -0.357837 21.4659
rtibia 31.2922
rfoot -9.76275 -0.961062
rtoes 8.64984
lfemur -33.1038 7.48341 -19.1825
ltibia 31.4825
lfoot -9.5243 3.63337
ltoes -5.72364
329
root 0.745449 17.5924 9.83513 16.2734 0.652596 -3.53323
lowerback 12.3442 0.59903 -1.31894
upperback 7.25725 0.667498 1.81368
thorax 0.642236 0.255094 2.55065
lowerneck -12.7106 0.395172 1.19106
upperneck 14.2033 0.446371 -0.878442
head 6.41505 0.206254 -0.435029
rclavicle -1.14301e-015 2.73329e-015
rhumerus -26.7269 -13.3061 -81.3506
rradius 31.7821
rwrist 27.0174
rhand -25.5394 -27.5769
rfingers 7.12502
rthumb 0.990641 -57.5543
lclavicle -1.14301e-015 2.73329e-015
lhumerus -29.8627 -1.34141 83.995
lradius 21.3414
lwrist 22.7736
lhand -24.0926 -8.62942
lfingers 7.12502
lthumb 2.38796 21.337
rfemur -33.8645 -0.412688 21.4678
rtibia 31.1446
rfoot -10.0222 -1.0337
rtoes 8.52727
lfemur -33.0914 7.53038 -19.2816
ltibia 31.4883
lfoot -9.68277 3.84453
ltoes -5.57105
330
root 0.753763 17.5872 9.88025 16.4076 0.695211 -3.54357
lowerback 12.3119 0.611971 -1.26792
upperback 7.25612 0.690072 1.841
thorax 0.657314 0.267231 2.54786
lowerneck -12.7763 0.372779 1.16111
upperneck 14.0136 0.425505 -0.910116
head 6.36556 0.191755 -0.441874
rclavicle -3.97569e-015 -7.35503e-015
rhumerus -27.3349 -14.3943 -80.5137
rradius 30.3746
rwrist 28.1519
rhand -25.2673 -27.4867
rfingers 7.12502
rthumb 1.25341 -57.4627
lclavicle -3.97569e-015 -7.35503e-015
lhumerus -30.5523 -1.03163 84.1959
lradius 20.9611
lwrist 22.314
lhand -24.0093 -8.47372
lfingers 7.12502
lthumb 2.46841 21.4917
rfemur -33.7457 -0.472897 21.4846
rtibia 30.9966
rfoot -10.2833 -1.11678
rtoes 8.32703
lfemur -33.0976 7.56136 -19.3584
ltibia 31.5268
lfoot -9.84085 4.04783
ltoes -5.50326
331
root 0.761754 17.5818 9.92381 16.5456 0.725934 -3.54436
lowerback 12.2727 0.633687 -1.23199
upperback 7.25362 0.722616 1.86593
thorax 0.67399 0.283928 2.55002
lowerneck -12.8506 0.345021 1.12244
upperneck 13.8295 0.396155 -0.924394
head 6.31923 0.174168 -0.442498
rclavicle 2.80783e-015 6.95746e-016
rhumerus -27.994 -15.4745 -79.6235
rradius 29.1119
rwrist 29.3013
rhand -25.007 -27.3922
rfingers 7.12502
rthumb 1.50483 -57.3667
lclavicle 2.80783e-015 6.95746e-016
lhumerus -31.2043 -0.758198 84.3983
lradius 20.587
lwrist 21.8427
lhand -23.9414 -8.29927
lfingers 7.12502
lthumb 2.53393 21.6654
rfemur -33.6408 -0.522006 21.4922
rtibia 30.8518
rfoot -10.5372 -1.2161
rtoes 8.09107
lfemur -33.1232 7.56212 -19.4222
ltibia 31.5875
lfoot -9.99342 4.23392
ltoes -5.49799
332
root 0.769801 17.5772 9.96661 16.6842 0.744858 -3.54028
lowerback 12.2266 0.659923 -1.20046
upperback 7.24999 0.760585 1.88569
thorax 0.692975 0.303284 2.54872
lowerneck -12.9262 0.313099 1.07284
upperneck 13.6445 0.359677 -0.916037
head 6.27274 0.15446 -0.434759
rclavicle 3.90115e-015 7.45443e-017
rhumerus -28.6992 -16.5195 -78.6963
rradius 27.9863
rwrist 30.4435
rhand -24.7547 -27.3155
rfingers 7.12502
rthumb 1.74843 -57.2881
lclavicle 3.90115e-015 7.45443e-017
lhumerus -31.8255 -0.499621 84.5885
lradius 20.2274
lwrist 21.3449
lhand -23.8687 -8.09553
lfingers 7.12502
lthumb 2.60419 21.8683
rfemur -33.5449 -0.571832 21.4964
rtibia 30.7136
rfoot -10.7834 -1.31601
rtoes 7.83317
lfemur -33.1509 7.53637 -19.468
ltibia 31.6565
lfoot -10.1441 4.3935
ltoes -5.58127
333
root 0.777206 17.5732 10.0077 16.823 0.747527 -3.53502
lowerback 12.1858 0.693096 -1.17832
upperback 7.24647 0.806572 1.89921
thorax 0.708787 0.326491 2.54529
lowerneck -12.9976 0.279159 1.02495
upperneck 13.4519 0.317868 -0.892931
head 6.22311 0.133503 -0.42308
rclavicle -1.51698e-014 -1.66731e-014
rhumerus -29.4326 -17.5274 -77.7507
rradius 26.9866
rwrist 31.5652
rhand -24.5212 -27.2425
rfingers 7.12502
rthumb 1.97397 -57.2131
lclavicle -1.51698e-014 -1.66731e-014
lhumerus -32.4077 -0.265394 84.7632
lradius 19.8815
lwrist 20.8371
lhand -23.7543 -7.85635
lfingers 7.12502
lthumb 2.71464 22.1061
rfemur -33.4656 -0.591493 21.494
rtibia 30.5889
rfoot -11.012 -1.4316
rtoes 7.59145
lfemur -33.1824 7.49253 -19.4906
ltibia 31.7271
lfoot -10.2889 4.52045
ltoes -5.72962
334
root 0.784077 17.5702 10.0471 16.9545 0.73334 -3.52675
lowerback 12.1631 0.728793 -1.16701
upperback 7.24283 0.854604 1.90475
thorax 0.714628 0.350623 2.53933
lowerneck -13.0635 0.251723 0.980624
upperneck 13.2473 0.283123 -0.86267
head 6.16885 0.116737 -0.409061
rclavicle 4.47266e-016 -7.24322e-015
rhumerus -30.1833 -18.4797 -76.8022
rradius 26.1041
rwrist 32.6457
rhand -24.2979 -27.1825
rfingers 7.12502
rthumb 2.18965 -57.151
lclavicle 4.47266e-016 -7.24322e-015
lhumerus -32.963 -0.042335 84.9159
lradius 19.564
lwrist 20.3233
lhand -23.6112 -7.55697
lfingers 7.12502
lthumb 2.85288 22.4037
rfemur -33.397 -0.586493 21.4813
rtibia 30.4826
rfoot -11.2203 -1.54687
rtoes 7.39944
lfemur -33.2051 7.44254 -19.4981
ltibia 31.7925
lfoot -10.4314 4.61209
ltoes -5.92637
335
root 0.790204 17.5677 10.0849 17.0783 0.699512 -3.52288
lowerback 12.1568 0.768852 -1.15771
upperback 7.23737 0.907979 1.90261
thorax 0.70952 0.377599 2.52575
lowerneck -13.1299 0.233129 0.946934
upperneck 13.0449 0.259015 -0.836637
head 6.11555 0.10531 -0.39718
rclavicle 5.97596e-015 1.12872e-014
rhumerus -30.9433 -19.3771 -75.8645
rradius 25.334
rwrist 33.6648
rhand -24.0736 -27.1535
rfingers 7.12502
rthumb 2.40624 -57.1197
lclavicle 5.97596e-015 1.12872e-014
lhumerus -33.4987 0.17269 85.0427
lradius 19.2795
lwrist 19.8102
lhand -23.4448 -7.23034
lfingers 7.12502
lthumb 3.0135 22.7281
rfemur -33.3393 -0.551155 21.4668
rtibia 30.398
rfoot -11.4045 -1.66646
rtoes 7.21449
lfemur -33.22 7.40076 -19.489
ltibia 31.8538
lfoot -10.57 4.67474
ltoes -6.16333
336
root 0.795598 17.5659 10.1209 17.1948 0.647902 -3.51505
lowerback 12.1602 0.811269 -1.15621
upperback 7.23687 0.963453 1.88997
thorax 0.704448 0.405522 2.50535
lowerneck -13.2041 0.218251 0.932595
upperneck 12.8543 0.238006 -0.822256
head 6.06744 0.0953946 -0.391909
rclavicle -4.96729e-015 -1.47132e-014
rhumerus -31.6904 -20.2628 -74.9295
rradius 24.6445
rwrist 34.6457
rhand -23.8451 -27.1496
rfingers 7.12502
rthumb 2.62691 -57.1132
lclavicle -4.96729e-015 -1.47132e-014
lhumerus -34.0096 0.372605 85.1467
lradius 19.0326
lwrist 19.3326
lhand -23.2676 -6.84956
lfingers 7.12502
lthumb 3.1847 23.1064
rfemur -33.2944 -0.491447 21.4406
rtibia 30.3347
rfoot -11.563 -1.77868
rtoes 7.08924
lfemur -33.2287 7.37507 -19.4793
ltibia 31.9093
lfoot -10.7025 4.7088
ltoes -6.40639
337
root 0.800352 17.5646 10.1552 17.3062 0.579756 -3.51383
lowerback 12.167 0.854255 -1.15112
upperback 7.23751 1.01988 1.87081
thorax 0.698826 0.43412 2.47597
lowerneck -13.2746 0.209203 0.922929
upperneck 12.6693 0.224567 -0.811237
head 6.02057 0.0891032 -0.387801
rclavicle -4.25834e-015 -9.96098e-015
rhumerus -32.4224 -21.0784 -74.0255
rradius 24.0442
rwrist 35.5262
rhand -23.6229 -27.1554
rfingers 7.12502
rthumb 2.84155 -57.1162
lclavicle -4.25834e-015 -9.96098e-015
lhumerus -34.5022 0.581492 85.2199
lradius 18.8168
lwrist 18.8825
lhand -23.084 -6.46906
lfingers 7.12502
lthumb 3.36201 23.4842
rfemur -33.2625 -0.414041 21.417
rtibia 30.2903
rfoot -11.6998 -1.87629
rtoes 7.02475
lfemur -33.2352 7.36769 -19.4625
ltibia 31.9618
lfoot -10.8232 4.72996
ltoes -6.65516
